<?xml version="1.0" encoding="UTF-8"?>
<!DOCTYPE svg PUBLIC "-//W3C//DTD SVG 1.1//EN" "http://www.w3.org/Graphics/SVG/1.1/DTD/svg11.dtd">
<svg version="1.2" width="19.27mm" height="26.54mm" viewBox="0 0 1927 2654" preserveAspectRatio="xMidYMid" fill-rule="evenodd" stroke-width="28.222" stroke-linejoin="round" xmlns="http://www.w3.org/2000/svg" xmlns:ooo="http://xml.openoffice.org/svg/export" xmlns:xlink="http://www.w3.org/1999/xlink" xmlns:presentation="http://sun.com/xmlns/staroffice/presentation" xmlns:smil="http://www.w3.org/2001/SMIL20/" xmlns:anim="urn:oasis:names:tc:opendocument:xmlns:animation:1.0" xml:space="preserve">
 <defs class="ClipPathGroup">
  <clipPath id="presentation_clip_path" clipPathUnits="userSpaceOnUse">
   <rect x="0" y="0" width="1927" height="2654"/>
  </clipPath>
  <clipPath id="presentation_clip_path_shrink" clipPathUnits="userSpaceOnUse">
   <rect x="1" y="2" width="1924" height="2649"/>
  </clipPath>
 </defs>
 <defs class="TextShapeIndex">
  <g ooo:slide="id1" ooo:id-list="id3"/>
 </defs>
 <defs class="EmbeddedBulletChars">
  <g id="bullet-char-template-57356" transform="scale(0.00048828125,-0.00048828125)">
   <path d="M 580,1141 L 1163,571 580,0 -4,571 580,1141 Z"/>
  </g>
  <g id="bullet-char-template-57354" transform="scale(0.00048828125,-0.00048828125)">
   <path d="M 8,1128 L 1137,1128 1137,0 8,0 8,1128 Z"/>
  </g>
  <g id="bullet-char-template-10146" transform="scale(0.00048828125,-0.00048828125)">
   <path d="M 174,0 L 602,739 174,1481 1456,739 174,0 Z M 1358,739 L 309,1346 659,739 1358,739 Z"/>
  </g>
  <g id="bullet-char-template-10132" transform="scale(0.00048828125,-0.00048828125)">
   <path d="M 2015,739 L 1276,0 717,0 1260,543 174,543 174,936 1260,936 717,1481 1274,1481 2015,739 Z"/>
  </g>
  <g id="bullet-char-template-10007" transform="scale(0.00048828125,-0.00048828125)">
   <path d="M 0,-2 C -7,14 -16,27 -25,37 L 356,567 C 262,823 215,952 215,954 215,979 228,992 255,992 264,992 276,990 289,987 310,991 331,999 354,1012 L 381,999 492,748 772,1049 836,1024 860,1049 C 881,1039 901,1025 922,1006 886,937 835,863 770,784 769,783 710,716 594,584 L 774,223 C 774,196 753,168 711,139 L 727,119 C 717,90 699,76 672,76 641,76 570,178 457,381 L 164,-76 C 142,-110 111,-127 72,-127 30,-127 9,-110 8,-76 1,-67 -2,-52 -2,-32 -2,-23 -1,-13 0,-2 Z"/>
  </g>
  <g id="bullet-char-template-10004" transform="scale(0.00048828125,-0.00048828125)">
   <path d="M 285,-33 C 182,-33 111,30 74,156 52,228 41,333 41,471 41,549 55,616 82,672 116,743 169,778 240,778 293,778 328,747 346,684 L 369,508 C 377,444 397,411 428,410 L 1163,1116 C 1174,1127 1196,1133 1229,1133 1271,1133 1292,1118 1292,1087 L 1292,965 C 1292,929 1282,901 1262,881 L 442,47 C 390,-6 338,-33 285,-33 Z"/>
  </g>
  <g id="bullet-char-template-9679" transform="scale(0.00048828125,-0.00048828125)">
   <path d="M 813,0 C 632,0 489,54 383,161 276,268 223,411 223,592 223,773 276,916 383,1023 489,1130 632,1184 813,1184 992,1184 1136,1130 1245,1023 1353,916 1407,772 1407,592 1407,412 1353,268 1245,161 1136,54 992,0 813,0 Z"/>
  </g>
  <g id="bullet-char-template-8226" transform="scale(0.00048828125,-0.00048828125)">
   <path d="M 346,457 C 273,457 209,483 155,535 101,586 74,649 74,723 74,796 101,859 155,911 209,963 273,989 346,989 419,989 480,963 531,910 582,859 608,796 608,723 608,648 583,586 532,535 482,483 420,457 346,457 Z"/>
  </g>
  <g id="bullet-char-template-8211" transform="scale(0.00048828125,-0.00048828125)">
   <path d="M -4,459 L 1135,459 1135,606 -4,606 -4,459 Z"/>
  </g>
  <g id="bullet-char-template-61548" transform="scale(0.00048828125,-0.00048828125)">
   <path d="M 173,740 C 173,903 231,1043 346,1159 462,1274 601,1332 765,1332 928,1332 1067,1274 1183,1159 1299,1043 1357,903 1357,740 1357,577 1299,437 1183,322 1067,206 928,148 765,148 601,148 462,206 346,322 231,437 173,577 173,740 Z"/>
  </g>
 </defs>
 <g>
  <g id="id2" class="Master_Slide">
   <g id="bg-id2" class="Background"/>
   <g id="bo-id2" class="BackgroundObjects"/>
  </g>
 </g>
 <g class="SlideGroup">
  <g>
   <g id="container-id1">
    <g id="id1" class="Slide" clip-path="url(#presentation_clip_path)">
     <g class="Page">
      <g class="Graphic">
       <g id="id3">
        <rect class="BoundingBox" stroke="none" fill="none" x="0" y="0" width="1927" height="2654"/>
        <path fill="rgb(211,56,51)" stroke="none" d="M 1884,1279 C 1884,1799 1472,2221 963,2221 454,2221 42,1799 42,1279 42,758 454,337 963,337 1472,337 1884,758 1884,1279 Z"/>
        <path fill="rgb(239,61,58)" stroke="none" d="M 79,1512 C 79,1512 13,530 918,502 L 855,396 364,561 223,723 100,958 30,1232 51,1414 Z"/>
        <path fill="rgb(35,31,32)" stroke="none" d="M 332,636 C 170,801 70,1030 70,1282 L 70,1282 C 70,1535 170,1763 332,1929 L 332,1929 C 494,2094 717,2196 963,2196 L 963,2196 C 1209,2196 1432,2094 1594,1929 L 1594,1929 C 1756,1763 1856,1535 1856,1282 L 1856,1282 C 1856,1030 1756,801 1594,636 L 1594,636 C 1432,471 1209,369 963,369 L 963,369 C 717,369 494,471 332,636 L 332,636 332,636 Z M 291,1969 C 119,1793 13,1550 13,1282 L 13,1282 C 13,1015 119,772 291,596 L 291,596 C 463,420 701,312 963,312 L 963,312 C 1225,312 1463,420 1635,596 L 1635,596 C 1807,772 1913,1015 1913,1282 L 1913,1282 C 1913,1550 1807,1793 1635,1969 L 1635,1969 C 1463,2144 1225,2253 963,2253 L 963,2253 C 701,2253 463,2144 291,1969 L 291,1969 291,1969 291,1969 Z"/>
        <path fill="rgb(240,214,183)" stroke="none" d="M 1351,1284 L 1210,1305 1021,1326 898,1330 779,1326 688,1298 607,1210 544,1031 530,993 445,965 396,884 361,768 400,666 491,635 565,670 600,747 642,740 656,723 642,642 638,540 659,400 659,320 723,217 835,137 1031,52 1249,84 1438,221 1526,361 1582,463 1596,716 1554,933 1477,1126 1403,1228 Z"/>
        <path fill="rgb(51,80,97)" stroke="none" d="M 1231,1891 L 730,1912 730,1996 772,2291 751,2316 400,2197 375,2154 340,1758 259,1519 242,1463 523,1270 610,1235 688,1330 754,1389 831,1414 866,1424 909,1607 940,1646 1021,1617 965,1726 1270,1870 1231,1891 Z"/>
        <path fill="rgb(109,107,109)" stroke="none" d="M 400,666 L 491,635 565,670 600,747 642,740 652,698 631,617 652,424 635,319 698,245 835,137 796,84 603,179 523,242 477,340 407,435 386,547 400,666 Z"/>
        <path fill="rgb(220,217,216)" stroke="none" d="M 544,337 C 544,337 596,207 807,144 1017,80 817,98 817,98 L 589,186 502,273 463,344 544,337 Z"/>
        <path fill="rgb(220,217,216)" stroke="none" d="M 438,642 C 438,642 365,396 645,361 L 635,319 442,365 386,547 400,666 438,642 Z"/>
        <path fill="rgb(247,228,205)" stroke="none" d="M 551,968 L 597,924 C 597,924 617,926 621,951 624,975 635,1196 786,1316 800,1327 673,1298 673,1298 L 561,1123 Z"/>
        <path fill="rgb(247,228,205)" stroke="none" d="M 1196,902 C 1196,902 1205,795 1233,803 1262,812 1262,840 1262,840 1262,840 1192,885 1196,902 Z"/>
        <path fill="rgb(247,228,205)" stroke="none" d="M 1488,512 C 1488,512 1430,524 1424,575 1419,626 1488,586 1498,582 Z"/>
        <path fill="rgb(247,228,205)" stroke="none" d="M 1063,516 C 1063,516 986,526 986,575 986,624 1074,621 1098,600 Z"/>
        <path fill="rgb(247,228,205)" stroke="none" d="M 586,744 C 586,744 452,663 438,740 424,817 393,874 459,954 L 414,940 372,831 358,726 438,642 530,649 582,691 586,744 Z"/>
        <path fill="rgb(247,228,205)" stroke="none" d="M 649,523 C 649,523 709,214 1010,154 1259,105 1389,165 1438,221 1438,221 1217,-42 1007,38 796,119 642,266 645,361 651,523 649,523 649,523 Z"/>
        <path fill="rgb(247,228,205)" stroke="none" d="M 1463,256 C 1463,256 1361,252 1358,344 1358,344 1358,358 1365,372 1365,372 1446,280 1495,330 Z"/>
        <path fill="rgb(247,228,205)" stroke="none" d="M 1017,381 C 1017,381 1000,241 881,323 803,375 810,449 824,463 838,477 835,505 845,486 856,466 852,403 891,386 930,368 993,349 1017,381 Z"/>
        <path fill="rgb(73,114,139)" stroke="none" d="M 688,1330 L 358,1477 C 358,1477 495,2021 424,2190 L 375,2172 372,1965 280,1572 242,1463 586,1231 688,1330 Z"/>
        <path fill="rgb(73,114,139)" stroke="none" d="M 721,1631 L 768,1688 768,1898 712,1898 C 712,1898 705,1751 705,1733 705,1716 712,1653 712,1653 Z"/>
        <path fill="rgb(73,114,139)" stroke="none" d="M 723,1930 L 565,1937 610,1968 723,1986 Z"/>
        <path fill="rgb(51,80,97)" stroke="none" d="M 1263,1895 L 1393,1891 1424,2214 1291,2232 1263,1895 Z"/>
        <path fill="rgb(51,80,97)" stroke="none" d="M 1298,1895 L 1495,1884 C 1495,1884 1575,1681 1575,1670 1575,1660 1646,1375 1646,1375 L 1488,1210 1456,1182 1372,1267 1372,1593 1298,1895 Z"/>
        <path fill="rgb(73,114,139)" stroke="none" d="M 1386,1870 L 1263,1895 1281,1993 C 1326,2014 1403,1958 1403,1958 Z"/>
        <path fill="rgb(73,114,139)" stroke="none" d="M 1389,1256 L 1635,1439 1642,1354 1456,1182 1389,1256 Z"/>
        <path fill="rgb(255,255,255)" stroke="none" d="M 844,2586 L 772,2291 736,2074 730,1912 1058,1895 1263,1895 1244,2263 1276,2547 1273,2600 1006,2621 844,2586 Z"/>
        <path fill="rgb(220,217,216)" stroke="none" d="M 1217,1891 C 1217,1891 1200,2256 1253,2516 1253,2516 1147,2583 993,2600 L 1288,2590 1323,2569 1281,1993 1270,1870 Z"/>
        <path fill="rgb(255,255,255)" stroke="none" d="M 1430,2186 L 1567,2147 1827,2133 1866,2014 1795,1807 1715,1797 1602,1832 1495,1884 1437,1874 1393,1891 Z"/>
        <path fill="rgb(220,217,216)" stroke="none" d="M 1428,2116 C 1428,2116 1519,2074 1533,2077 L 1495,1884 1540,1867 C 1540,1867 1572,2049 1572,2070 1572,2070 1768,2081 1786,2081 1786,2081 1828,2000 1817,1916 L 1856,2028 1860,2091 1803,2175 1740,2190 1635,2186 1600,2140 1477,2158 1438,2172 Z"/>
        <path fill="rgb(255,255,255)" stroke="none" d="M 1213,1670 L 1132,1554 C 1132,1554 1150,1505 1174,1505 L 1255,1505 1332,1533 1325,1663 1290,1867 1213,1670 Z"/>
        <path fill="rgb(220,217,216)" stroke="none" d="M 1305,1800 C 1305,1800 1207,1610 1207,1582 1207,1582 1224,1540 1249,1551 1274,1561 1326,1589 1326,1589 L 1326,1523 1207,1498 1126,1509 1263,1832 1291,1835 Z"/>
        <path fill="rgb(255,255,255)" stroke="none" d="M 876,1337 L 779,1326 688,1298 688,1330 732,1379 872,1442 Z"/>
        <path fill="rgb(220,217,216)" stroke="none" d="M 719,1347 C 719,1347 828,1393 863,1382 L 866,1424 768,1403 709,1361 719,1347 Z"/>
        <path fill="rgb(211,56,51)" stroke="none" d="M 1430,1517 C 1371,1515 1317,1508 1270,1495 1273,1476 1267,1457 1272,1443 1285,1433 1307,1434 1327,1431 1309,1423 1285,1420 1266,1424 1265,1411 1259,1403 1255,1392 1289,1380 1368,1302 1412,1328 1434,1340 1443,1411 1444,1445 1446,1473 1442,1502 1430,1517 Z"/>
        <path fill="none" stroke="rgb(211,56,51)" stroke-width="66" stroke-linejoin="miter" d="M 1430,1517 C 1371,1515 1317,1508 1270,1495 1273,1476 1267,1457 1272,1443 1285,1433 1307,1434 1327,1431 1309,1423 1285,1420 1266,1424 1265,1411 1259,1403 1255,1392 1289,1380 1368,1302 1412,1328 1434,1340 1443,1411 1444,1445 1446,1473 1442,1502 1430,1517 Z"/>
        <path fill="rgb(211,56,51)" stroke="none" d="M 1145,1420 C 1145,1424 1145,1429 1145,1433 1126,1446 1096,1445 1076,1456 1106,1457 1130,1464 1150,1475 1150,1486 1149,1497 1149,1509 1115,1532 1083,1567 1043,1589 1024,1599 958,1625 938,1621 926,1618 925,1604 921,1591 911,1562 889,1516 887,1473 884,1419 879,1328 937,1339 984,1348 1039,1370 1076,1390 1098,1402 1111,1417 1145,1420 Z"/>
        <path fill="none" stroke="rgb(211,56,51)" stroke-width="66" stroke-linejoin="miter" d="M 1145,1420 C 1145,1424 1145,1429 1145,1433 1126,1446 1096,1445 1076,1456 1106,1457 1130,1464 1150,1475 1150,1486 1149,1497 1149,1509 1115,1532 1083,1567 1043,1589 1024,1599 958,1625 938,1621 926,1618 925,1604 921,1591 911,1562 889,1516 887,1473 884,1419 879,1328 937,1339 984,1348 1039,1370 1076,1390 1098,1402 1111,1417 1145,1420 Z"/>
        <path fill="rgb(211,56,51)" stroke="none" d="M 1179,1485 C 1174,1455 1168,1447 1170,1421 1249,1368 1264,1511 1179,1485 Z"/>
        <path fill="none" stroke="rgb(211,56,51)" stroke-width="66" stroke-linejoin="miter" d="M 1179,1485 C 1174,1455 1168,1447 1170,1421 1249,1368 1264,1511 1179,1485 Z"/>
        <path fill="rgb(239,61,58)" stroke="none" d="M 1294,1509 C 1294,1509 1269,1474 1287,1463 1304,1453 1322,1463 1332,1446 1343,1428 1332,1418 1336,1396 1339,1375 1357,1372 1374,1368 1392,1365 1441,1358 1448,1375 L 1427,1312 1385,1298 1251,1375 1244,1414 1244,1491 Z"/>
        <path fill="rgb(239,61,58)" stroke="none" d="M 925,1625 C 921,1570 916,1515 911,1460 904,1379 931,1393 1002,1393 1013,1393 1068,1406 1072,1414 1092,1453 1040,1444 1095,1474 1140,1499 1221,1459 1202,1403 1192,1391 1149,1400 1133,1392 1106,1377 1078,1363 1051,1349 1016,1331 935,1304 898,1330 804,1394 904,1554 938,1621 Z"/>
        <path fill="rgb(35,31,32)" stroke="none" d="M 1017,381 C 922,359 874,421 845,486 819,480 830,444 836,426 853,379 922,317 979,325 1003,329 1036,351 1017,381 Z"/>
        <path fill="rgb(35,31,32)" stroke="none" d="M 1483,490 C 1485,490 1487,490 1488,490 1510,535 1528,583 1556,622 1537,665 1417,703 1419,626 1445,615 1490,624 1513,609 1500,573 1480,542 1483,490 Z"/>
        <path fill="rgb(35,31,32)" stroke="none" d="M 1066,491 C 1087,529 1094,568 1123,597 1136,610 1161,625 1149,661 1146,669 1124,688 1112,692 1066,705 960,694 996,637 1034,639 1084,662 1112,635 1091,600 1052,532 1066,491 Z"/>
        <path fill="rgb(35,31,32)" stroke="none" d="M 1466,873 C 1398,917 1321,965 1209,954 1185,933 1176,887 1199,856 1211,877 1203,916 1237,921 1301,932 1375,882 1421,865 1450,817 1419,799 1393,768 1341,705 1270,627 1273,532 1294,517 1296,555 1299,562 1326,627 1395,709 1446,764 1458,777 1478,790 1481,799 1487,825 1464,856 1466,873 Z"/>
        <path fill="rgb(35,31,32)" stroke="none" d="M 562,827 C 540,815 535,761 510,759 474,757 480,829 480,872 456,849 451,780 470,744 449,734 439,755 428,763 443,655 585,713 562,827 Z"/>
        <path fill="rgb(35,31,32)" stroke="none" d="M 1510,918 C 1478,979 1433,1046 1339,1048 1337,1028 1336,998 1339,987 1411,980 1455,943 1510,918 Z"/>
        <path fill="rgb(35,31,32)" stroke="none" d="M 1061,958 C 1121,989 1231,992 1312,990 1316,1008 1316,1030 1316,1052 1212,1057 1088,1031 1061,958 Z"/>
        <path fill="rgb(35,31,32)" stroke="none" d="M 1050,1016 C 1091,1120 1233,1108 1353,1105 1348,1119 1336,1135 1322,1140 1284,1156 1178,1168 1124,1140 1091,1122 1069,1081 1050,1057 1041,1046 997,1016 1050,1016 Z"/>
        <path fill="rgb(129,176,196)" stroke="none" d="M 1461,1589 C 1413,1672 1366,1757 1309,1831 1333,1760 1343,1641 1347,1550 1397,1527 1441,1556 1461,1589 Z"/>
        <path fill="rgb(35,31,32)" stroke="none" d="M 1722,1887 C 1668,1898 1630,1951 1577,1948 1606,1907 1657,1889 1722,1887 Z"/>
        <path fill="rgb(35,31,32)" stroke="none" d="M 1746,1972 C 1702,1977 1650,1984 1605,1981 1626,1948 1708,1959 1746,1972 Z"/>
        <path fill="rgb(35,31,32)" stroke="none" d="M 1762,2046 C 1712,2047 1650,2046 1603,2042 1631,2012 1729,2031 1762,2046 Z"/>
        <path fill="rgb(220,217,216)" stroke="none" d="M 1368,2246 C 1375,2309 1400,2372 1397,2441 1369,2450 1353,2458 1316,2458 1314,2400 1306,2311 1308,2255 1326,2257 1353,2242 1368,2246 Z"/>
        <path fill="rgb(240,214,183)" stroke="none" d="M 1288,1325 C 1263,1342 1241,1362 1217,1379 1164,1382 1135,1376 1096,1345 1097,1343 1101,1344 1101,1341 1158,1366 1230,1331 1288,1325 Z"/>
        <path fill="rgb(129,176,196)" stroke="none" d="M 989,1714 C 1004,1646 1066,1611 1121,1573 1179,1646 1214,1740 1252,1831 1161,1803 1068,1759 989,1714 Z"/>
        <path fill="rgb(35,31,32)" stroke="none" d="M 1308,2255 C 1306,2311 1314,2400 1316,2458 1353,2458 1369,2450 1397,2441 1400,2372 1375,2309 1368,2246 1353,2242 1326,2257 1308,2255 L 1308,2255 1308,2255 Z M 734,1940 C 759,2163 794,2351 859,2549 1002,2593 1175,2596 1301,2557 1278,2446 1288,2310 1275,2190 1264,2101 1269,2011 1255,1919 1102,1887 885,1912 734,1940 L 734,1940 734,1940 Z M 1292,1921 C 1290,2017 1296,2111 1303,2207 1340,2202 1365,2198 1399,2191 1388,2098 1390,1994 1367,1912 1341,1913 1318,1912 1292,1921 L 1292,1921 1292,1921 Z M 1479,1905 C 1461,1901 1441,1905 1424,1905 1432,1984 1451,2070 1458,2152 1484,2153 1498,2141 1520,2136 1521,2064 1513,1965 1479,1905 L 1479,1905 1479,1905 Z M 1762,2164 C 1816,2151 1851,2083 1836,2015 1825,1968 1807,1881 1787,1851 1773,1829 1734,1801 1702,1821 1651,1853 1561,1863 1524,1902 1543,1965 1549,2050 1556,2129 1620,2133 1698,2111 1751,2134 1714,2146 1666,2146 1634,2163 1661,2176 1722,2174 1762,2164 L 1762,2164 1762,2164 Z M 1252,1831 C 1214,1740 1179,1646 1121,1573 1066,1611 1004,1646 989,1714 1068,1759 1161,1803 1252,1831 L 1252,1831 Z M 1347,1550 C 1343,1641 1333,1760 1309,1831 1366,1757 1413,1672 1461,1589 1441,1556 1397,1527 1347,1550 L 1347,1550 1347,1550 Z M 1239,1512 C 1218,1510 1199,1537 1171,1525 1164,1532 1158,1540 1152,1547 1214,1623 1243,1730 1291,1818 1317,1733 1314,1640 1320,1547 1284,1549 1264,1515 1239,1512 L 1239,1512 Z M 1170,1421 C 1168,1447 1174,1455 1179,1485 1264,1511 1249,1368 1170,1421 L 1170,1421 Z M 1076,1390 C 1039,1370 984,1348 937,1339 879,1328 884,1419 887,1473 889,1516 911,1562 921,1591 925,1604 926,1618 938,1621 958,1625 1024,1599 1043,1589 1083,1567 1115,1532 1149,1509 1149,1497 1150,1486 1150,1475 1130,1464 1106,1457 1076,1456 1096,1445 1126,1446 1145,1433 1145,1429 1145,1424 1145,1420 1111,1417 1098,1402 1076,1390 L 1076,1390 1076,1390 Z M 726,1326 C 696,1357 812,1399 848,1402 848,1382 860,1364 857,1350 814,1342 756,1347 726,1326 L 726,1326 726,1326 Z M 1101,1341 C 1101,1344 1097,1343 1096,1345 1135,1376 1164,1382 1217,1379 1241,1362 1263,1342 1288,1325 1230,1331 1158,1366 1101,1341 L 1101,1341 1101,1341 Z M 1444,1445 C 1443,1411 1434,1340 1412,1328 1368,1302 1289,1380 1255,1392 1259,1403 1265,1411 1266,1424 1285,1420 1309,1423 1327,1431 1307,1434 1285,1433 1272,1443 1267,1457 1273,1476 1270,1495 1317,1508 1371,1515 1430,1517 1442,1502 1446,1473 1444,1445 L 1444,1445 1444,1445 Z M 675,1356 C 666,1349 601,1265 592,1269 476,1315 366,1395 269,1470 362,1670 399,1914 406,2150 513,2200 606,2272 751,2279 734,2161 719,2055 709,1944 673,1928 621,1944 587,1939 587,1898 639,1921 643,1893 646,1873 614,1871 625,1838 651,1848 665,1869 694,1877 720,1820 693,1720 697,1673 698,1664 702,1624 721,1631 739,1637 720,1738 722,1783 724,1824 717,1864 734,1890 874,1871 1016,1859 1167,1855 1134,1840 1094,1827 1051,1802 1027,1789 953,1762 947,1739 936,1704 975,1685 982,1654 911,1693 897,1617 881,1564 866,1516 857,1480 853,1452 793,1423 728,1393 675,1356 L 675,1356 675,1356 Z M 1382,1279 C 1480,1232 1497,1455 1459,1527 1465,1549 1485,1557 1494,1576 1439,1674 1379,1765 1324,1861 1365,1835 1424,1856 1472,1837 1490,1830 1503,1789 1516,1757 1553,1667 1592,1555 1609,1470 1613,1450 1624,1408 1621,1391 1617,1360 1575,1337 1554,1318 1514,1282 1490,1251 1448,1218 1432,1243 1396,1259 1382,1279 L 1382,1279 1382,1279 Z M 453,416 C 406,467 416,563 422,631 505,578 617,635 616,725 656,724 631,675 623,643 600,540 663,428 626,334 554,340 496,369 453,416 L 453,416 453,416 Z M 784,120 C 680,150 545,226 502,320 535,315 558,299 591,297 604,296 620,302 634,298 663,291 687,227 709,203 730,180 755,170 772,149 783,144 799,144 800,127 795,122 790,118 784,120 L 784,120 784,120 Z M 1331,148 C 1222,87 1038,40 922,98 828,145 702,222 659,320 699,414 647,500 643,596 642,647 667,692 669,747 656,770 613,773 584,771 575,722 557,667 507,661 435,653 383,713 380,774 376,847 436,968 520,959 553,956 561,923 597,924 616,962 567,974 562,1002 560,1009 566,1037 569,1050 584,1113 619,1196 652,1244 695,1305 779,1315 870,1321 886,1286 945,1289 984,1298 938,1279 895,1235 859,1195 818,1150 776,1101 774,1042 852,1150 916,1244 1057,1291 1164,1327 1289,1275 1371,1217 1405,1193 1426,1155 1450,1120 1541,990 1583,804 1574,623 1570,549 1570,474 1545,424 1519,372 1431,325 1379,372 1369,322 1422,290 1484,308 1440,252 1393,183 1331,148 L 1331,148 1331,148 Z M 1534,1828 C 1619,1786 1778,1714 1831,1828 1851,1870 1874,1941 1884,1985 1899,2046 1869,2175 1806,2195 1750,2213 1685,2212 1618,2199 1611,2192 1602,2181 1596,2169 1548,2167 1503,2171 1465,2191 1469,2226 1445,2232 1423,2239 1406,2305 1456,2391 1444,2451 1435,2494 1383,2501 1344,2509 1343,2533 1346,2553 1348,2573 1339,2605 1300,2624 1262,2628 1138,2643 950,2650 831,2607 798,2526 772,2427 744,2333 628,2346 534,2283 446,2242 415,2228 373,2220 361,2196 350,2172 354,2127 352,2084 345,1975 339,1870 310,1758 297,1708 274,1663 259,1615 244,1570 219,1515 212,1470 202,1404 265,1400 304,1371 366,1327 414,1302 481,1262 501,1250 561,1220 567,1207 581,1179 544,1141 535,1119 519,1085 511,1056 509,1023 453,1014 410,980 385,943 342,881 313,765 349,678 352,671 367,657 369,647 373,626 361,598 360,576 356,462 379,364 456,330 487,206 598,165 703,103 743,80 786,66 830,49 991,-10 1236,1 1369,102 1425,144 1515,234 1548,299 1633,471 1627,759 1567,968 1559,996 1548,1038 1531,1071 1520,1095 1485,1142 1489,1163 1494,1184 1569,1242 1586,1257 1615,1286 1670,1323 1675,1359 1680,1396 1658,1448 1647,1485 1611,1607 1575,1719 1534,1828 L 1534,1828 1534,1828 Z"/>
        <path fill="rgb(247,228,205)" stroke="none" d="M 966,984 C 971,978 996,969 1031,986 1031,986 989,993 993,1063 L 975,1060 C 975,1060 957,996 966,984 Z"/>
        <path fill="rgb(29,25,25)" stroke="none" d="M 1274,1588 C 1274,1598 1265,1607 1254,1607 1244,1607 1235,1598 1235,1588 1235,1577 1244,1568 1254,1568 1265,1568 1274,1577 1274,1588 Z"/>
        <path fill="rgb(29,25,25)" stroke="none" d="M 1293,1677 C 1293,1688 1284,1696 1274,1696 1263,1696 1254,1688 1254,1677 1254,1667 1263,1658 1274,1658 1284,1658 1293,1667 1293,1677 Z"/>
       </g>
      </g>
     </g>
    </g>
   </g>
  </g>
 </g>
</svg>