<?xml version="1.0" encoding="UTF-8"?>
<!DOCTYPE svg PUBLIC "-//W3C//DTD SVG 1.1//EN" "http://www.w3.org/Graphics/SVG/1.1/DTD/svg11.dtd">
<svg version="1.2" width="77.52mm" height="27.25mm" viewBox="0 0 7752 2725" preserveAspectRatio="xMidYMid" fill-rule="evenodd" stroke-width="28.222" stroke-linejoin="round" xmlns="http://www.w3.org/2000/svg" xmlns:ooo="http://xml.openoffice.org/svg/export" xmlns:xlink="http://www.w3.org/1999/xlink" xmlns:presentation="http://sun.com/xmlns/staroffice/presentation" xmlns:smil="http://www.w3.org/2001/SMIL20/" xmlns:anim="urn:oasis:names:tc:opendocument:xmlns:animation:1.0" xml:space="preserve">
 <defs class="ClipPathGroup">
  <clipPath id="presentation_clip_path" clipPathUnits="userSpaceOnUse">
   <rect x="0" y="0" width="7752" height="2725"/>
  </clipPath>
  <clipPath id="presentation_clip_path_shrink" clipPathUnits="userSpaceOnUse">
   <rect x="7" y="2" width="7737" height="2720"/>
  </clipPath>
 </defs>
 <defs class="TextShapeIndex">
  <g ooo:slide="id1" ooo:id-list="id3"/>
 </defs>
 <defs class="EmbeddedBulletChars">
  <g id="bullet-char-template-57356" transform="scale(0.00048828125,-0.00048828125)">
   <path d="M 580,1141 L 1163,571 580,0 -4,571 580,1141 Z"/>
  </g>
  <g id="bullet-char-template-57354" transform="scale(0.00048828125,-0.00048828125)">
   <path d="M 8,1128 L 1137,1128 1137,0 8,0 8,1128 Z"/>
  </g>
  <g id="bullet-char-template-10146" transform="scale(0.00048828125,-0.00048828125)">
   <path d="M 174,0 L 602,739 174,1481 1456,739 174,0 Z M 1358,739 L 309,1346 659,739 1358,739 Z"/>
  </g>
  <g id="bullet-char-template-10132" transform="scale(0.00048828125,-0.00048828125)">
   <path d="M 2015,739 L 1276,0 717,0 1260,543 174,543 174,936 1260,936 717,1481 1274,1481 2015,739 Z"/>
  </g>
  <g id="bullet-char-template-10007" transform="scale(0.00048828125,-0.00048828125)">
   <path d="M 0,-2 C -7,14 -16,27 -25,37 L 356,567 C 262,823 215,952 215,954 215,979 228,992 255,992 264,992 276,990 289,987 310,991 331,999 354,1012 L 381,999 492,748 772,1049 836,1024 860,1049 C 881,1039 901,1025 922,1006 886,937 835,863 770,784 769,783 710,716 594,584 L 774,223 C 774,196 753,168 711,139 L 727,119 C 717,90 699,76 672,76 641,76 570,178 457,381 L 164,-76 C 142,-110 111,-127 72,-127 30,-127 9,-110 8,-76 1,-67 -2,-52 -2,-32 -2,-23 -1,-13 0,-2 Z"/>
  </g>
  <g id="bullet-char-template-10004" transform="scale(0.00048828125,-0.00048828125)">
   <path d="M 285,-33 C 182,-33 111,30 74,156 52,228 41,333 41,471 41,549 55,616 82,672 116,743 169,778 240,778 293,778 328,747 346,684 L 369,508 C 377,444 397,411 428,410 L 1163,1116 C 1174,1127 1196,1133 1229,1133 1271,1133 1292,1118 1292,1087 L 1292,965 C 1292,929 1282,901 1262,881 L 442,47 C 390,-6 338,-33 285,-33 Z"/>
  </g>
  <g id="bullet-char-template-9679" transform="scale(0.00048828125,-0.00048828125)">
   <path d="M 813,0 C 632,0 489,54 383,161 276,268 223,411 223,592 223,773 276,916 383,1023 489,1130 632,1184 813,1184 992,1184 1136,1130 1245,1023 1353,916 1407,772 1407,592 1407,412 1353,268 1245,161 1136,54 992,0 813,0 Z"/>
  </g>
  <g id="bullet-char-template-8226" transform="scale(0.00048828125,-0.00048828125)">
   <path d="M 346,457 C 273,457 209,483 155,535 101,586 74,649 74,723 74,796 101,859 155,911 209,963 273,989 346,989 419,989 480,963 531,910 582,859 608,796 608,723 608,648 583,586 532,535 482,483 420,457 346,457 Z"/>
  </g>
  <g id="bullet-char-template-8211" transform="scale(0.00048828125,-0.00048828125)">
   <path d="M -4,459 L 1135,459 1135,606 -4,606 -4,459 Z"/>
  </g>
  <g id="bullet-char-template-61548" transform="scale(0.00048828125,-0.00048828125)">
   <path d="M 173,740 C 173,903 231,1043 346,1159 462,1274 601,1332 765,1332 928,1332 1067,1274 1183,1159 1299,1043 1357,903 1357,740 1357,577 1299,437 1183,322 1067,206 928,148 765,148 601,148 462,206 346,322 231,437 173,577 173,740 Z"/>
  </g>
 </defs>
 <g>
  <g id="id2" class="Master_Slide">
   <g id="bg-id2" class="Background"/>
   <g id="bo-id2" class="BackgroundObjects"/>
  </g>
 </g>
 <g class="SlideGroup">
  <g>
   <g id="container-id1">
    <g id="id1" class="Slide" clip-path="url(#presentation_clip_path)">
     <g class="Page">
      <g class="Group">
       <g class="com.sun.star.drawing.ClosedBezierShape">
        <g id="id3">
         <rect class="BoundingBox" stroke="none" fill="none" x="816" y="276" width="6120" height="1696"/>
         <path fill="rgb(255,255,255)" stroke="none" d="M 4113,1502 C 4113,1625 4113,1748 4113,1871 L 4113,1871 C 4097,1882 4083,1892 4065,1902 4035,1920 4000,1935 3965,1945 L 3965,1945 C 3912,1961 3858,1969 3802,1969 3801,1969 3799,1969 3797,1969 L 3797,1969 C 3795,1969 3792,1969 3789,1969 3723,1969 3657,1957 3595,1934 L 3595,1934 C 3572,1926 3550,1915 3529,1903 3497,1885 3468,1862 3441,1837 L 3441,1837 C 3413,1810 3388,1780 3369,1745 3358,1728 3350,1708 3343,1689 L 3343,1689 C 3320,1631 3308,1570 3308,1507 3308,1506 3308,1504 3308,1502 L 3308,1502 C 3308,1500 3308,1498 3308,1496 3308,1434 3319,1372 3341,1314 L 3341,1314 C 3349,1293 3359,1272 3371,1252 3407,1189 3460,1136 3523,1100 3541,1089 3563,1079 3585,1071 L 3585,1071 C 3645,1048 3709,1037 3773,1037 3776,1037 3779,1037 3782,1037 L 3782,1037 C 3783,1037 3784,1037 3785,1037 3818,1037 3852,1040 3884,1046 L 3884,1046 C 3915,1051 3945,1059 3974,1070 L 3974,1070 C 3995,1078 4016,1087 4034,1098 4040,1101 4044,1104 4049,1108 L 4049,1108 C 4072,1122 4093,1139 4113,1157 4097,1182 4081,1208 4064,1234 L 4064,1234 C 4064,1234 4064,1234 4064,1235 4060,1242 4054,1246 4047,1251 4043,1253 4039,1255 4034,1256 L 4034,1256 C 4031,1257 4028,1257 4025,1257 4016,1257 4007,1255 3999,1250 3997,1249 3996,1248 3995,1247 3982,1239 3968,1231 3954,1223 L 3954,1223 C 3939,1215 3924,1208 3908,1202 L 3908,1202 C 3889,1196 3871,1191 3851,1188 L 3851,1188 C 3829,1184 3806,1182 3783,1182 3781,1182 3779,1182 3778,1182 L 3778,1182 C 3776,1182 3775,1182 3773,1182 3733,1182 3693,1190 3656,1205 L 3656,1205 C 3645,1209 3634,1214 3624,1220 3601,1234 3580,1250 3563,1270 L 3563,1270 C 3549,1285 3537,1301 3527,1319 3517,1336 3509,1353 3503,1371 L 3503,1371 C 3489,1411 3482,1454 3482,1497 3482,1499 3482,1501 3482,1503 L 3482,1503 C 3482,1505 3482,1507 3482,1510 3482,1555 3490,1600 3505,1642 L 3505,1642 C 3511,1660 3518,1677 3528,1693 3538,1712 3553,1730 3568,1747 L 3568,1747 C 3585,1764 3604,1781 3626,1792 3638,1800 3652,1805 3665,1811 L 3665,1811 C 3706,1825 3750,1833 3794,1833 3824,1833 3854,1829 3882,1822 L 3882,1822 C 3909,1815 3935,1805 3960,1793 3960,1739 3960,1684 3960,1629 3922,1629 3884,1629 3846,1629 L 3846,1629 C 3845,1629 3844,1629 3843,1629 3837,1629 3830,1629 3826,1625 3823,1624 3822,1622 3820,1620 L 3820,1620 C 3818,1618 3815,1617 3814,1613 3811,1610 3810,1603 3810,1598 3810,1598 3810,1598 3810,1597 3810,1566 3810,1534 3810,1502 3911,1502 4012,1502 4113,1502 Z M 4390,1424 L 4390,1424 C 4392,1419 4395,1414 4398,1408 4415,1380 4436,1355 4462,1334 L 4462,1334 C 4467,1329 4474,1324 4480,1321 4503,1307 4530,1301 4556,1301 4558,1301 4559,1301 4560,1301 L 4560,1301 C 4562,1301 4564,1301 4566,1301 4587,1301 4608,1306 4626,1317 4628,1318 4630,1319 4632,1320 4629,1359 4626,1397 4622,1436 L 4622,1436 C 4621,1439 4620,1442 4618,1445 4617,1448 4615,1450 4613,1452 L 4613,1452 C 4612,1453 4612,1453 4611,1453 4607,1456 4602,1457 4598,1457 4597,1457 4598,1457 4597,1457 L 4597,1457 C 4587,1457 4578,1456 4569,1454 L 4569,1454 C 4557,1452 4544,1451 4532,1451 L 4532,1451 C 4531,1451 4531,1451 4530,1451 4515,1451 4500,1453 4486,1458 L 4486,1458 C 4480,1460 4475,1463 4469,1466 4462,1470 4456,1475 4450,1480 L 4450,1480 C 4439,1490 4429,1502 4422,1514 L 4422,1514 C 4420,1516 4419,1518 4418,1520 4411,1533 4404,1546 4399,1560 4399,1693 4399,1826 4399,1959 4348,1959 4297,1959 4245,1959 4245,1744 4245,1528 4245,1313 4276,1313 4306,1313 4336,1313 L 4336,1313 C 4338,1313 4339,1313 4341,1313 4350,1313 4359,1315 4367,1319 4368,1320 4369,1321 4370,1321 L 4370,1321 C 4372,1324 4374,1327 4376,1330 4380,1336 4382,1344 4382,1352 4385,1376 4388,1400 4390,1424 Z M 4690,1402 L 4690,1402 C 4711,1383 4734,1366 4759,1352 4817,1319 4883,1301 4951,1301 4953,1301 4956,1301 4959,1301 L 4959,1301 C 4961,1301 4962,1301 4964,1301 4997,1301 5030,1307 5061,1319 L 5061,1319 C 5069,1323 5078,1327 5086,1332 5105,1343 5122,1356 5136,1371 L 5136,1371 C 5147,1383 5157,1398 5165,1411 5173,1424 5179,1437 5183,1451 L 5183,1451 C 5194,1482 5200,1516 5200,1549 5200,1550 5200,1551 5200,1552 5200,1688 5200,1824 5200,1959 5177,1959 5153,1959 5129,1959 L 5129,1959 C 5127,1959 5126,1959 5125,1959 5114,1959 5104,1957 5095,1952 L 5095,1952 C 5089,1948 5084,1943 5080,1937 5078,1934 5077,1930 5076,1926 5072,1911 5067,1895 5062,1879 L 5062,1879 C 5047,1893 5031,1906 5014,1918 L 5014,1918 C 5006,1923 4998,1929 4990,1933 4982,1938 4974,1942 4965,1946 L 4965,1946 C 4948,1954 4931,1959 4913,1963 L 4913,1963 C 4893,1967 4872,1969 4852,1969 4851,1969 4850,1969 4849,1969 L 4849,1969 C 4848,1969 4848,1969 4847,1969 4822,1969 4797,1966 4773,1958 L 4773,1958 C 4761,1955 4750,1951 4739,1944 4730,1939 4721,1932 4713,1925 L 4713,1925 C 4701,1914 4691,1902 4683,1888 4680,1882 4677,1876 4674,1870 L 4674,1870 C 4665,1847 4660,1823 4660,1798 4660,1797 4660,1795 4660,1794 L 4660,1794 C 4660,1777 4663,1761 4669,1745 L 4669,1745 C 4672,1736 4676,1729 4680,1720 4685,1713 4689,1705 4695,1699 L 4695,1699 C 4709,1683 4725,1669 4744,1657 L 4744,1657 C 4748,1654 4752,1652 4756,1649 4775,1638 4795,1630 4816,1623 L 4816,1623 C 4849,1612 4883,1604 4917,1599 L 4917,1599 C 4961,1593 5005,1589 5049,1588 5049,1576 5049,1563 5049,1550 L 5049,1550 C 5050,1547 5050,1543 5050,1539 5050,1514 5044,1490 5031,1468 5029,1463 5025,1459 5022,1454 L 5022,1454 C 5015,1447 5008,1441 4999,1436 4984,1427 4966,1423 4948,1423 4946,1423 4944,1423 4942,1423 L 4942,1423 C 4940,1423 4939,1423 4937,1423 4917,1423 4898,1426 4879,1432 L 4879,1432 C 4864,1437 4849,1443 4836,1451 4825,1458 4813,1465 4801,1471 L 4801,1471 4801,1471 C 4791,1477 4779,1480 4768,1480 4767,1480 4768,1480 4767,1480 L 4767,1480 C 4766,1480 4766,1480 4765,1480 4757,1480 4750,1478 4743,1474 4742,1474 4740,1473 4739,1472 L 4739,1472 C 4732,1466 4725,1460 4721,1452 4711,1436 4701,1419 4690,1402 Z M 5047,1683 L 5047,1683 C 5009,1684 4971,1688 4933,1694 L 4933,1694 C 4908,1698 4883,1706 4860,1716 L 4860,1716 C 4856,1718 4853,1721 4849,1722 4838,1729 4828,1737 4820,1747 L 4820,1747 C 4819,1748 4819,1749 4818,1750 4812,1762 4808,1775 4808,1788 4808,1802 4812,1815 4818,1826 4822,1833 4827,1839 4832,1844 L 4832,1844 C 4834,1846 4837,1847 4839,1848 4854,1857 4872,1862 4891,1862 4892,1862 4894,1862 4896,1862 L 4896,1862 C 4897,1862 4899,1862 4900,1862 4927,1862 4954,1856 4979,1844 L 4979,1844 C 4982,1843 4984,1841 4987,1840 5010,1827 5030,1811 5047,1792 5047,1756 5047,1720 5047,1683 Z M 5908,1022 C 5908,1334 5908,1647 5908,1959 5877,1959 5845,1959 5813,1959 L 5813,1959 C 5811,1959 5810,1959 5809,1959 5803,1959 5797,1957 5791,1954 5786,1951 5781,1947 5777,1941 5776,1939 5774,1934 5773,1931 5769,1910 5765,1889 5760,1868 L 5760,1868 C 5736,1896 5708,1919 5677,1937 5674,1938 5672,1940 5670,1941 L 5670,1941 C 5636,1958 5598,1967 5560,1967 5557,1967 5555,1967 5552,1967 L 5552,1967 C 5551,1967 5550,1967 5549,1967 5512,1967 5475,1958 5443,1939 5418,1925 5396,1905 5379,1881 L 5379,1881 C 5372,1872 5366,1863 5360,1853 5347,1830 5336,1804 5329,1779 L 5329,1779 C 5318,1735 5312,1690 5312,1645 5312,1642 5312,1640 5312,1637 L 5312,1637 C 5312,1636 5312,1635 5312,1634 5312,1590 5319,1546 5332,1504 L 5332,1504 C 5339,1481 5348,1459 5360,1438 5368,1424 5378,1411 5388,1398 L 5388,1398 C 5408,1372 5434,1351 5462,1335 5467,1332 5471,1330 5475,1328 L 5475,1328 C 5511,1310 5549,1301 5589,1301 5590,1301 5590,1301 5590,1301 L 5590,1301 C 5592,1301 5595,1301 5597,1301 5626,1301 5656,1307 5683,1318 L 5683,1318 C 5691,1322 5699,1325 5706,1330 5723,1339 5738,1351 5752,1363 5752,1250 5752,1136 5752,1023 5804,1022 5856,1022 5908,1022 Z M 5753,1477 L 5753,1477 C 5740,1461 5725,1448 5708,1438 5704,1436 5699,1434 5695,1432 L 5695,1432 C 5674,1423 5651,1418 5629,1418 5628,1418 5629,1418 5628,1418 L 5628,1418 C 5627,1418 5627,1418 5626,1418 5605,1418 5584,1423 5564,1432 L 5564,1432 C 5561,1433 5557,1436 5554,1437 5538,1447 5525,1458 5515,1472 L 5515,1472 C 5511,1477 5508,1483 5504,1488 5496,1505 5488,1522 5484,1540 L 5484,1540 C 5477,1570 5473,1600 5473,1631 5473,1633 5473,1635 5473,1637 L 5473,1637 C 5473,1640 5473,1643 5473,1645 5473,1675 5476,1704 5482,1733 L 5482,1733 C 5486,1753 5493,1772 5504,1790 5505,1792 5507,1795 5509,1798 L 5509,1798 C 5517,1811 5529,1823 5542,1830 5545,1832 5548,1833 5550,1834 L 5550,1834 C 5567,1841 5585,1845 5603,1845 5604,1845 5604,1845 5605,1845 L 5605,1845 C 5607,1845 5609,1845 5610,1845 5638,1845 5664,1838 5688,1825 L 5688,1825 C 5713,1810 5735,1790 5753,1767 5753,1671 5753,1574 5753,1477 Z M 6220,1023 C 6220,1335 6220,1647 6220,1959 6168,1959 6116,1959 6064,1959 6064,1647 6064,1335 6064,1023 6116,1023 6168,1023 6220,1023 Z M 6496,1655 L 6496,1655 C 6498,1684 6504,1713 6514,1741 L 6514,1741 C 6517,1751 6522,1761 6527,1770 6534,1782 6541,1791 6550,1801 L 6550,1801 C 6560,1811 6571,1820 6582,1826 6589,1830 6596,1834 6603,1836 L 6603,1836 C 6624,1844 6647,1848 6669,1848 6670,1848 6671,1848 6672,1848 L 6672,1848 C 6674,1848 6675,1848 6677,1848 6697,1848 6718,1845 6738,1839 L 6738,1839 C 6754,1834 6770,1827 6785,1820 6799,1812 6812,1806 6821,1800 L 6821,1800 C 6822,1800 6821,1800 6822,1799 6831,1794 6841,1792 6851,1791 L 6851,1791 C 6852,1791 6853,1791 6854,1791 6859,1791 6865,1793 6870,1795 6874,1798 6878,1802 6880,1806 6895,1825 6911,1844 6926,1863 L 6926,1863 C 6910,1883 6890,1900 6868,1914 L 6868,1914 C 6864,1917 6860,1920 6855,1922 6838,1932 6820,1940 6801,1947 L 6801,1947 C 6778,1955 6754,1961 6730,1965 L 6730,1965 C 6706,1968 6683,1970 6660,1970 L 6660,1970 C 6658,1970 6657,1970 6656,1970 6614,1970 6573,1962 6534,1947 L 6534,1947 C 6520,1942 6506,1936 6493,1928 6471,1916 6451,1899 6433,1881 L 6433,1881 C 6416,1863 6401,1843 6388,1821 6379,1806 6372,1789 6365,1773 L 6365,1773 C 6349,1727 6341,1679 6341,1631 6341,1628 6341,1625 6341,1623 L 6341,1623 C 6341,1622 6341,1621 6341,1620 6341,1578 6348,1537 6362,1498 L 6362,1498 C 6368,1481 6376,1466 6385,1450 6396,1432 6409,1413 6424,1396 L 6424,1396 C 6443,1376 6466,1358 6491,1344 6501,1338 6511,1333 6521,1329 L 6521,1329 C 6562,1311 6606,1302 6650,1302 6651,1302 6651,1302 6652,1302 L 6652,1302 C 6653,1302 6654,1302 6656,1302 6693,1302 6730,1309 6765,1322 L 6765,1322 C 6778,1327 6790,1333 6802,1340 6821,1351 6838,1363 6854,1378 L 6854,1378 C 6869,1394 6883,1412 6894,1431 6901,1444 6907,1456 6912,1470 L 6912,1470 C 6926,1508 6933,1549 6933,1589 6933,1591 6933,1593 6933,1595 L 6933,1595 C 6934,1598 6934,1600 6934,1603 6934,1617 6931,1630 6926,1642 L 6926,1642 C 6923,1646 6920,1649 6916,1651 6912,1653 6906,1655 6901,1655 6899,1655 6898,1655 6897,1655 6763,1655 6630,1655 6496,1655 Z M 6793,1561 L 6793,1561 C 6793,1542 6790,1522 6784,1504 L 6784,1504 C 6781,1495 6778,1487 6773,1478 6769,1472 6764,1464 6758,1457 L 6758,1457 C 6749,1447 6739,1438 6727,1431 6723,1429 6719,1427 6715,1425 L 6715,1425 C 6696,1417 6677,1413 6657,1413 6656,1413 6655,1413 6654,1413 L 6654,1413 C 6651,1413 6649,1413 6646,1413 6621,1413 6596,1421 6574,1433 6565,1439 6556,1444 6548,1452 L 6548,1452 C 6539,1462 6530,1474 6523,1486 6510,1509 6501,1534 6499,1561 6597,1561 6695,1561 6793,1561 Z M 2983,383 L 2983,383 C 2960,361 2935,342 2908,326 2852,294 2790,277 2726,277 2662,277 2600,294 2545,326 2521,340 2498,356 2478,375 L 2478,375 C 2476,377 2474,380 2472,383 2469,388 2467,394 2467,400 L 2467,400 2467,400 C 2467,406 2469,412 2472,418 2473,420 2475,423 2477,425 2492,440 2507,455 2523,470 L 2523,470 C 2525,473 2527,474 2530,476 2535,479 2542,481 2548,481 2554,481 2560,479 2565,476 2566,475 2567,474 2568,474 L 2568,474 C 2575,469 2582,464 2589,460 2621,442 2656,432 2692,432 2693,432 2692,432 2693,432 L 2693,432 2693,432 C 2730,432 2765,442 2797,460 2829,478 2854,504 2873,536 2891,567 2901,603 2901,640 2901,676 2891,713 2873,744 2863,759 2853,774 2840,787 2553,1076 2167,269 1294,684 L 1294,684 C 1290,686 1287,687 1284,689 1266,699 1251,714 1241,732 1230,750 1225,771 1225,792 1225,812 1230,833 1241,851 1291,937 1340,1023 1390,1109 L 1390,1109 C 1401,1127 1416,1142 1434,1153 1452,1163 1472,1169 1493,1169 1513,1169 1533,1163 1551,1154 1552,1153 1553,1152 1555,1151 1554,1152 1553,1153 1552,1154 1574,1141 1596,1128 1618,1116 L 1618,1116 C 1692,1070 1762,1018 1827,961 L 1827,961 C 1829,959 1832,957 1834,956 1840,952 1845,951 1852,951 1858,951 1865,952 1870,956 1872,957 1874,958 1875,959 L 1875,959 1875,959 C 1878,962 1881,964 1883,968 1886,974 1888,979 1888,985 1888,991 1886,997 1883,1002 1881,1006 1878,1009 1875,1012 L 1875,1012 C 1807,1073 1734,1128 1656,1177 1655,1177 1654,1177 1654,1178 1632,1190 1610,1202 1588,1215 L 1588,1215 C 1560,1231 1528,1239 1496,1239 L 1496,1239 1496,1239 C 1495,1239 1495,1239 1495,1239 1462,1239 1429,1231 1400,1214 1371,1197 1348,1173 1331,1145 1284,1063 1236,982 1189,901 917,1093 752,1461 841,1930 L 841,1930 C 841,1933 843,1937 845,1940 848,1946 851,1950 857,1953 862,1956 869,1958 875,1958 L 875,1958 C 929,1958 982,1958 1036,1958 L 1036,1958 C 1036,1958 1037,1958 1037,1958 1043,1958 1048,1956 1054,1953 1059,1950 1064,1946 1067,1940 1069,1936 1071,1932 1071,1927 L 1071,1927 C 1075,1897 1086,1867 1101,1840 1122,1804 1152,1774 1188,1753 1224,1733 1264,1722 1306,1722 1347,1722 1388,1733 1424,1753 1460,1774 1490,1804 1511,1840 1526,1867 1536,1897 1540,1927 L 1540,1927 C 1541,1932 1542,1936 1545,1940 1548,1946 1552,1950 1557,1953 1562,1956 1568,1958 1574,1958 1626,1958 1678,1958 1731,1958 L 1731,1958 1731,1958 C 1737,1958 1743,1956 1749,1953 1754,1950 1758,1946 1761,1940 1763,1936 1765,1932 1766,1927 L 1766,1927 C 1769,1896 1779,1866 1795,1839 1815,1803 1846,1773 1882,1752 1918,1732 1958,1721 2000,1721 2041,1721 2082,1732 2118,1752 2154,1773 2184,1803 2205,1839 2220,1866 2230,1896 2234,1927 L 2234,1927 C 2235,1932 2236,1936 2239,1940 2242,1946 2246,1950 2251,1953 2256,1956 2262,1958 2268,1958 2320,1958 2372,1958 2424,1958 L 2424,1958 2424,1958 C 2430,1958 2436,1956 2441,1953 2446,1950 2449,1946 2453,1940 2455,1935 2458,1930 2458,1924 2462,1705 2521,1453 2689,1328 3271,893 3118,519 2983,383 Z M 2389,1043 C 2351,1024 2314,1005 2277,987 L 2277,987 2277,987 C 2277,986 2277,987 2277,986 2277,974 2281,962 2287,952 2293,941 2301,932 2312,926 2322,920 2334,917 2347,917 2359,917 2371,920 2382,926 2392,932 2402,941 2408,952 2414,962 2417,973 2417,986 2417,998 2414,1011 2408,1021 2403,1030 2396,1037 2389,1043 Z"/>
        </g>
       </g>
      </g>
     </g>
    </g>
   </g>
  </g>
 </g>
</svg>